<?xml version="1.0" encoding="UTF-8"?><!DOCTYPE svg PUBLIC "-//W3C//DTD SVG 1.1//EN" "http://www.w3.org/Graphics/SVG/1.1/DTD/svg11.dtd"><svg xmlns="http://www.w3.org/2000/svg"><symbol id="arrow-01" viewBox="0 0 12 20"><style>.st0{fill:#282828}</style><path class="st0" d="M12 .3c0 .1 0 .2-.1.2L1 10l10.9 9.4c.2.1.2.4 0 .5s-.4.1-.6 0L.1 10.2c-.1-.1-.1-.3 0-.4L11.3.1c.2-.1.4-.1.6 0 .1.1.1.2.1.2z"/></symbol><symbol id="attention" viewBox="0 0 512 512"><path d="M507.333 424.604l-.01-.01C473.238 354.677 416.1 255.51 365.692 168.021c-26.376-45.792-51.294-89.031-69.305-121.896-8.5-15.521-23.605-24.792-40.398-24.792s-31.897 9.271-40.397 24.792c-18.022 32.885-42.95 76.167-69.357 121.99C95.858 255.583 38.741 354.708 4.667 424.604 1.573 430.969 0 437.708 0 444.615c0 25.396 20.511 46.052 45.731 46.052L256 490.646l210.269.021c25.22 0 45.731-20.656 45.731-46.052 0-6.907-1.573-13.646-4.667-20.011zm-41.062 44.74H45.75c-13.448 0-24.396-11.104-24.396-24.729 0-3.646.844-7.24 2.51-10.667 33.75-69.229 90.667-168.021 140.875-255.177 26.458-45.927 51.448-89.313 69.573-122.396 9.396-17.167 33.979-17.167 43.375 0 18.115 33.063 43.083 76.406 69.521 122.292 50.24 87.188 107.177 186.021 140.938 255.271 1.677 3.438 2.521 7.031 2.521 10.677 0 13.625-10.948 24.729-24.396 24.729z"/><path d="M256 128.01a10.66 10.66 0 0 0-10.667 10.667V352.01c0 5.896 4.771 10.667 10.667 10.667s10.667-4.771 10.667-10.667V138.677A10.66 10.66 0 0 0 256 128.01z"/><circle cx="256" cy="416" r="10.667"/></symbol><symbol id="box (2)" viewBox="0 0 467.2 467.2"><path d="M455.146 120.9l-91.7-116.3c-2.3-2.9-5.7-4.6-9.4-4.6h-240.8c-3.7 0-7.2 1.7-9.4 4.6l-91.7 116.3c-1.7 2.1-2.6 4.7-2.6 7.4v326.9c0 6.6 5.4 12 12 12h424.1c6.6 0 12-5.4 12-12V128.3c.1-2.7-.8-5.3-2.5-7.4zm-32.6-2.6h-176.9V24h102.6l74.3 94.3zM119.046 24h102.6v94.3h-176.9l74.3-94.3zm-85.5 419.2V142.3h400.1v300.9h-400.1z"/><path d="M242.246 203.1c-.3-.3-.6-.6-.9-.8-.2-.1-.3-.2-.5-.3s-.3-.2-.5-.4l-.6-.3c-.2-.1-.3-.2-.5-.3l-.6-.3c-.2-.1-.3-.2-.5-.2-.2-.1-.4-.1-.6-.2-.2-.1-.4-.1-.5-.2-.2-.1-.4-.1-.6-.1s-.4-.1-.6-.1-.4-.1-.7-.1c-.2 0-.3-.1-.5-.1-.8-.1-1.6-.1-2.4 0-.2 0-.3 0-.5.1-.2 0-.4.1-.7.1-.2 0-.4.1-.6.1-.2 0-.4.1-.6.1-.2.1-.4.1-.5.2-.2.1-.4.1-.6.2-.2.1-.3.2-.5.2l-.6.3c-.2.1-.3.2-.5.3l-.6.3c-.2.1-.3.2-.5.4-.2.1-.3.2-.5.3-.3.2-.6.5-.8.7l-.1.1-57 57c-4.7 4.7-4.7 12.3 0 17 2.3 2.3 5.4 3.5 8.5 3.5s6.1-1.2 8.5-3.5l36.5-36.5v136.7c0 6.6 5.4 12 12 12s12-5.4 12-12V240.6l36.3 36.3c4.7 4.7 12.3 4.7 17 0s4.7-12.3 0-17l-56.2-56.8z"/></symbol><symbol id="box-check-mark" viewBox="0 0 317.641 317.642"><path d="M317.641 33.159l-8.279-8.28-33.188 33.188V20.733H0v276.175h276.174V74.626l41.467-41.467zm-53.177 252.032H11.71V32.438h252.754v37.333L135.889 198.347l-60.508-60.514-8.28 8.279 68.793 68.794 128.57-128.57v198.855z" fill="#030303"/></symbol><symbol id="box" viewBox="0 0 60 60"><path d="M49.554 0H10.446L0 16.713V60h60V16.713L49.554 0zm-1.108 2l8.75 14H37V2h11.446zM30 2h5v14H25V2h5zm3.93 21.656A.992.992 0 0 0 33 23a1 1 0 0 0-1 1c0 .43.274.789.656.93l-1.725 1.725C30.789 26.274 30.43 26 30 26s-.789.274-.93.656l-1.725-1.725A.994.994 0 0 0 27 23a.992.992 0 0 0-.93.656l-.07-.07-1 1V18h1a1 1 0 0 0 2 0h4a1 1 0 0 0 2 0h1v6.586l-1-1-.07.07zM11.554 2H23v14H2.804l8.75-14zM25 58v-3.586l1 1 4-4 4 4 1-1V58H25zm12 0v-8.414l-3 3-4-4-4 4-3-3V58H2V18h21v11.414l3-3 4 4 4-4 3 3V18h21v40H37z"/><circle cx="30" cy="3" r="1"/><circle cx="27" cy="6" r="1"/><circle cx="27" cy="12" r="1"/><circle cx="30" cy="9" r="1"/><circle cx="33" cy="6" r="1"/><circle cx="33" cy="12" r="1"/><circle cx="30" cy="15" r="1"/><circle cx="30" cy="21" r="1"/></symbol><symbol id="car" viewBox="0 0 512 512"><path d="M119.467 349.867c-14.138 0-25.6 11.462-25.6 25.6s11.461 25.6 25.6 25.6 25.6-11.461 25.6-25.6c-.016-14.132-11.468-25.585-25.6-25.6zm0 34.133c-4.713 0-8.533-3.82-8.533-8.533s3.82-8.533 8.533-8.533 8.533 3.82 8.533 8.533a8.542 8.542 0 0 1-8.533 8.533zM392.533 349.867c-14.138 0-25.6 11.462-25.6 25.6s11.462 25.6 25.6 25.6c14.138 0 25.6-11.461 25.6-25.6-.015-14.132-11.468-25.585-25.6-25.6zm0 34.133a8.533 8.533 0 1 1 8.533-8.533 8.54 8.54 0 0 1-8.533 8.533z"/><path d="M505.496 228.4l-58.783-66.2a25.596 25.596 0 0 0-19.192-8.6h-77.654v-51.2c-.015-14.132-11.468-25.585-25.6-25.6H25.6C11.468 76.815.015 88.268 0 102.4v221.867a8.53 8.53 0 0 0 8.534 8.534h8.533v25.6c.015 14.132 11.468 25.585 25.6 25.6h17.748c4.206 29.38 29.372 51.2 59.052 51.2s54.846-21.82 59.052-51.2h154.964c4.206 29.38 29.372 51.2 59.052 51.2s54.846-21.82 59.052-51.2H486.4c14.132-.015 25.585-11.468 25.6-25.6V245.417a25.577 25.577 0 0 0-6.504-17.017zM17.067 315.733V102.4a8.54 8.54 0 0 1 8.533-8.533h298.667a8.54 8.54 0 0 1 8.533 8.533v213.333H17.067zm43.348 51.2H42.667a8.54 8.54 0 0 1-8.533-8.533v-25.6h43.61a59.576 59.576 0 0 0-17.329 34.133zm59.052 51.2c-23.564 0-42.667-19.103-42.667-42.667S95.903 332.8 119.467 332.8s42.667 19.103 42.667 42.667c-.028 23.552-19.115 42.639-42.667 42.666zm85.333-51.2h-26.282A59.571 59.571 0 0 0 161.19 332.8h43.61v34.133zm76.8 0h-59.733V332.8H281.6v34.133zm51.882 0h-34.815V332.8h52.143a59.574 59.574 0 0 0-17.328 34.133zm59.051 51.2c-23.564 0-42.667-19.103-42.667-42.667s19.102-42.667 42.667-42.667c23.564 0 42.667 19.103 42.667 42.667-.028 23.553-19.114 42.64-42.667 42.667zm102.4-59.733a8.54 8.54 0 0 1-8.533 8.533h-34.815c-4.255-29.353-29.391-51.147-59.052-51.2h-42.667V170.667H384V256c.015 14.132 11.468 25.585 25.6 25.6h85.333v76.8zm0-93.867H409.6a8.54 8.54 0 0 1-8.533-8.533v-85.333h26.454a8.549 8.549 0 0 1 6.421 2.85l58.804 66.225a8.556 8.556 0 0 1 2.188 5.675v19.116z"/></symbol><symbol id="cart_icon-01" viewBox="0 0 24 19"><style>.st0{fill:#010101}</style><path class="st0" d="M23.5 6.1h-4.3L16.3.3c-.1-.1-.2-.2-.4-.1-.1.1-.2.2-.1.3L18.6 6H5.4L8.2.5c.1-.1 0-.3-.1-.4-.1-.1-.3 0-.4.1L4.8 6.1H.5c-.2 0-.3.1-.3.3v.1l3 9.9c.5 1.5 1.9 2.5 3.5 2.5h10.4c1.6 0 3.1-1 3.5-2.5l3-9.8c.2-.3.1-.4-.1-.5.1 0 0 0 0 0zm-3.3 10.1c-.4 1.3-1.6 2.1-3 2.1H6.8c-1.4 0-2.6-.9-3-2.1L.9 6.6h22.2l-2.9 9.6z"/><path class="st0" d="M6.8 19c-1.7 0-3.3-1.1-3.7-2.6L0 6.5v-.1c0-.2.1-.3.2-.4.1-.1.2-.1.4-.1h4.1L7.5.3c.1-.3.4-.4.6-.3.1.1.2.1.3.3v.4L5.7 5.9h12.5L15.6.7c-.1-.2 0-.5.2-.6.2-.1.3-.1.4-.1.1 0 .2.1.3.2l2.8 5.7H23.5c.4.1.6.4.5.6l-3 9.9c-.5 1.6-2 2.6-3.7 2.6H6.8zM.5 6.3c-.1 0-.1 0 0 0l2.9 9.9c.4 1.4 1.8 2.3 3.3 2.3h10.4c1.5 0 2.9-1 3.3-2.4l3-9.8v-.2.1H19L16.1.3H16v.1l2.9 5.8H5.1L8 .5h-.1l-3 5.8H.5zm16.7 12.2H6.8c-1.5 0-2.8-.9-3.2-2.3l-3-9.8h22.8l-3 9.8c-.4 1.4-1.7 2.3-3.2 2.3zM1.2 6.8L4 16.1c.4 1.2 1.5 2 2.8 2h10.4c1.3 0 2.4-.8 2.8-2l2.8-9.3H1.2z"/></symbol><symbol id="celostnost" viewBox="0 0 60 60"><path d="M50.486 1.492l-2.229.318L48.62 0H12.719l-.414 1.655-1.548-.608L9.983.74 1.207 14.782l1.053 3.16-.798-.417L0 16.765v15.101c0 .881.306 1.742.862 2.426a1431.83 1431.83 0 0 0 3.161 3.874l.273.334.43.03c.937.067 1.889.132 2.781.19l-2.871 1.148-4.42 12.631A3.83 3.83 0 0 0 0 53.769v2.39A3.846 3.846 0 0 0 3.841 60h21.262c.301 0 .602-.035.894-.105 6.477-1.545 12.443-2.997 14.966-3.611l.563-.138.161-.557c.096-.332.195-.674.295-1.013l.496 1.735 7.445 3.351a3.813 3.813 0 0 0 1.576.338h4.66A3.846 3.846 0 0 0 60 56.158v-7.334c0-.515-.101-1.017-.32-1.534l-5.1-10.719a3.625 3.625 0 0 0-.043-.18l-.123-.438-2.902-1.386 2.874-.358.233-.505c.074-.16.151-.289.238-.394l4.276-5.227A3.851 3.851 0 0 0 60 25.652v-8.939L50.486 1.492zM46.18 2l-.438 2.189 3.738-.533L57.196 16H37V2h9.18zM30 2h5v14H25V2h5zm-5 16h1a1 1 0 0 0 2 0h4a1 1 0 0 0 2 0h1v15.586l-1-1-4 4-4-4-1 1V18zM10.797 3.212c.997.393 1.84.72 1.84.72l1.058.412L14.281 2H23v14H3.721l-.319-.956 7.395-11.832zm46.787 23.606l-4.274 5.225a3.158 3.158 0 0 0-.229.314l-8.592 1.074 8.248 3.938.025.061 5.094 10.678c.095.228.144.469.144.716v7.334A1.843 1.843 0 0 1 56.159 58h-4.66a1.83 1.83 0 0 1-.755-.162l-6.598-2.97-2.121-7.421-.982 3.265s-.58 1.925-1.115 3.765c-2.774.676-8.362 2.033-14.396 3.473-.14.033-.285.05-.429.05H3.841a1.81 1.81 0 0 1-.385-.042l2.251-2.251a.999.999 0 1 0-1.414-1.414l-2.251 2.251A1.819 1.819 0 0 1 2 56.158v-2.39c0-.208.035-.412.104-.608l4.12-11.772 10.306-4.123-4.471-.263s-3.409-.201-6.76-.437a1730.31 1730.31 0 0 1-2.884-3.536A1.846 1.846 0 0 1 2 31.865V20.066c.903.478 1.523.813 1.525.813l2.223 1.201L4.387 18H23v20.414l3-3 4 4 4-4 3 3V18h21v7.652c0 .424-.147.838-.416 1.166z"/><circle cx="30" cy="3" r="1"/><circle cx="27" cy="6" r="1"/><circle cx="27" cy="12" r="1"/><circle cx="30" cy="9" r="1"/><circle cx="33" cy="6" r="1"/><circle cx="33" cy="12" r="1"/><circle cx="30" cy="15" r="1"/><circle cx="27" cy="24" r="1"/><circle cx="30" cy="21" r="1"/><circle cx="33" cy="24" r="1"/><circle cx="30" cy="27" r="1"/><circle cx="27" cy="30" r="1"/><circle cx="30" cy="33" r="1"/><circle cx="33" cy="30" r="1"/></symbol><symbol id="diploma" viewBox="0 0 512 512"><path d="M448.308 0H63.692c-4.416 0-8 3.584-8 8v496c0 4.424 3.584 8 8 8h384.624c4.416 0 8-3.576 7.992-8V8c0-4.416-3.576-8-8-8zm-8 496H71.692V16h368.616v480z"/><path d="M103.556 53.144h72.32v16h-72.32zM103.556 84.792h102.48v16h-102.48zM187.668 149.6h136.64v16h-136.64zM100.268 197.072H411.74v16H100.268zM100.268 234.744H411.74v16H100.268zM100.268 272.4H411.74v16H100.268zM194.38 310.096h217.36v16H194.38zM100.268 310.096h50.208v16h-50.208zM222.244 347.76h27.488v16h-27.488zM100.268 347.76h22.848v16h-22.848zM409.316 402.512c-3.272.288-6.512.544-9.712.776.976-2.536 1.304-5.744.16-8.568-1.008-2.584-2.872-3.368-3.992-3.616-.816-.184-1.92-.184-3.128.368-.136-.176-.272-.344-.4-.512-3.128-3.792-8-4.992-12.72-3.168-2.36.928-4.52 2.544-6.336 4.688-2.664-1.72-5.736-1.496-6.936-1.4-3.32.24-7.168.656-10.848 2.592-4.008 2.104-7.168 5.8-8.76 10.232a360.66 360.66 0 0 1-17.688-1.376c-2.36-.328-4.488 1.368-4.896 3.704a4.492 4.492 0 0 0 3.352 5.152 142.232 142.232 0 0 0 17.888 3.224c.072 1.528.216 2.984.384 4.304.736 5.88 2.048 11.552 3.904 16.88a4.502 4.502 0 0 0 4.256 3.024c.496 0 1-.08 1.496-.248 2.352-.824 3.6-3.392 2.768-5.744-1.648-4.72-2.808-9.768-3.464-15.008a53.692 53.692 0 0 1-.248-2.472c4.408.224 8.792.208 13.176 0 .104 2.016.28 3.96.44 5.784a4.507 4.507 0 0 0 4.264 4.104c2.592.36 4.24-1.456 4.656-3.656.44-2.328.768-4.72.96-7.136 2.232-.296 4.576-.704 6.952-1.312 8.216-.32 16.624-.864 25.264-1.632 2.488-.224 4.32-2.416 4.096-4.888-.224-2.504-2.664-4.248-4.888-4.096zm-41.32 1.944c-3.824-.08-7.672-.056-11.456-.152a9.271 9.271 0 0 1 3.048-2.656c2.144-1.12 4.68-1.384 7.32-1.568.92-.072 1.288-.024 1.288-.096.096.176.256.592.416 1.56a30.39 30.39 0 0 0-.616 2.912zm17.416-1.272c-.04.144-.056.272-.072.416-.616.2-1.232.392-1.856.56-1.848.072-3.688.128-5.52.176a78.953 78.953 0 0 0-.16-1.976c1.096-3.016 3.008-5.392 5.008-6.16 1.544-.6 2.248.24 2.48.512.64.784 1 2.288.968 3.584a26.672 26.672 0 0 0-.848 2.888zM163.38 409.024l-17.048 36.44-.344-.608a8.009 8.009 0 0 0-8.368-3.92l-.696.128 16-34.208-14.496-6.784-22.552 48.216a7.997 7.997 0 0 0 .904 8.264 8.007 8.007 0 0 0 7.76 3l10.336-1.864 5.192 9.136a7.984 7.984 0 0 0 6.952 4.048c.112 0 .216 0 .328-.016a7.98 7.98 0 0 0 6.928-4.6l23.6-50.448-14.496-6.784z"/><path d="M229.492 448.296l-22.56-48.216-14.496 6.784 16.008 34.208-.696-.128a8.009 8.009 0 0 0-8.368 3.92l-.344.608-17.056-36.44-14.496 6.784 23.608 50.448a7.984 7.984 0 0 0 7.248 4.608 8.015 8.015 0 0 0 6.96-4.04l5.192-9.136 10.336 1.864a7.951 7.951 0 0 0 7.76-3 7.997 7.997 0 0 0 .904-8.264zM172.676 333.592c-16.024 0-29.064 13.04-29.064 29.064s13.04 29.064 29.064 29.064 29.064-13.04 29.064-29.064-13.04-29.064-29.064-29.064zm0 42.128c-7.208 0-13.064-5.856-13.064-13.064s5.864-13.064 13.064-13.064c7.208 0 13.064 5.856 13.064 13.064s-5.856 13.064-13.064 13.064z"/><path d="M172.676 305.08c-31.744 0-57.568 25.832-57.568 57.568 0 31.736 25.824 57.568 57.568 57.568s57.568-25.832 57.568-57.568c0-31.736-25.824-57.568-57.568-57.568zm0 99.136c-22.92 0-41.568-18.648-41.568-41.568s18.648-41.568 41.568-41.568 41.568 18.648 41.568 41.568-18.648 41.568-41.568 41.568z"/></symbol><symbol id="facebook-01" viewBox="0 0 33 33"><style>.st0{fill:#fff}.st1{fill:#5bc2a7}</style><circle class="st0" cx="16.5" cy="16.5" r="16"/><path class="st1" d="M16.5 33C7.4 33 0 25.6 0 16.5S7.4 0 16.5 0 33 7.4 33 16.5 25.6 33 16.5 33zm0-32C8 1 1 8 1 16.5S8 32 16.5 32 32 25 32 16.5 25 1 16.5 1z"/><g><path class="st1" d="M17.7 24.2v-7h2.4l.4-2.7h-2.7v-1.7c0-.8.2-1.3 1.4-1.3h1.5V8.9c-.3 0-1.1-.1-2.1-.1-2.1 0-3.5 1.3-3.5 3.6v2h-2.4v2.7h2.4v7h2.6z"/></g></symbol><symbol id="location" viewBox="0 0 775.11 1000"><title>1</title><path d="M387.56 0C173.52 0 0 173.52 0 387.56S387.56 1000 387.56 1000s387.55-398.4 387.55-612.44S601.6 0 387.56 0zM33.09 390.16c0-195.77 158.7-354.46 354.46-354.46S742 194.39 742 390.16 387.56 950.31 387.56 950.31 33.09 585.92 33.09 390.16z"/><path d="M387.56 164C263.65 164 163.2 264.44 163.2 388.35s100.45 224.36 224.36 224.36 224.36-100.45 224.36-224.36S511.47 164 387.56 164zm4 411.4c-103.3 0-187-83.74-187-187s83.74-187 187-187 187 83.74 187 187-83.75 186.99-187.05 186.99z"/></symbol><symbol id="mail" viewBox="0 0 31.012 31.012"><path d="M25.109 21.51a.495.495 0 0 1-.342-.136l-5.754-5.398a.5.5 0 1 1 .685-.728l5.754 5.398a.5.5 0 0 1-.343.864zM5.902 21.51a.5.5 0 0 1-.343-.864l5.756-5.398a.5.5 0 0 1 .685.728l-5.756 5.398a.495.495 0 0 1-.342.136z"/><path d="M28.512 26.529H2.5a2.503 2.503 0 0 1-2.5-2.5V6.982c0-1.379 1.122-2.5 2.5-2.5h26.012c1.378 0 2.5 1.121 2.5 2.5v17.047c0 1.379-1.122 2.5-2.5 2.5zM2.5 5.482c-.827 0-1.5.673-1.5 1.5v17.047c0 .827.673 1.5 1.5 1.5h26.012c.827 0 1.5-.673 1.5-1.5V6.982c0-.827-.673-1.5-1.5-1.5H2.5z"/><path d="M15.506 18.018c-.665 0-1.33-.221-1.836-.662L.83 6.155a.501.501 0 0 1-.049-.706.503.503 0 0 1 .706-.048l12.84 11.2c.639.557 1.719.557 2.357 0L29.508 5.419a.5.5 0 0 1 .658.754L17.342 17.355c-.507.442-1.171.663-1.836.663z"/></symbol><symbol id="novinka-01" viewBox="0 0 21 20"><style>.st0{fill:#fff}</style><path class="st0" d="M4 20l1.2-7.2L0 7.6l7.3-1.1L10.5 0l3.2 6.6 7.3 1-5.2 5.1L17 20l-6.5-3.4L4 20zm6.5-4.3l5.4 2.8-1-6 4.4-4.3-6.1-.9-2.7-5.5-2.7 5.5-6.1.9 4.4 4.3-1 6 5.4-2.8z"/></symbol><symbol id="percent" viewBox="0 0 511.983 511.983"><path d="M127.997 63.983c-41.173 0-74.667 33.493-74.667 74.667s33.493 74.667 74.667 74.667 74.667-33.493 74.667-74.667-33.494-74.667-74.667-74.667zm0 128c-29.419 0-53.333-23.936-53.333-53.333s23.915-53.333 53.333-53.333c29.419 0 53.333 23.936 53.333 53.333s-23.914 53.333-53.333 53.333zM383.997 298.649c-41.173 0-74.667 33.493-74.667 74.667 0 41.173 33.493 74.667 74.667 74.667s74.667-33.493 74.667-74.667c0-41.173-33.494-74.667-74.667-74.667zm0 128c-29.419 0-53.333-23.936-53.333-53.333s23.915-53.333 53.333-53.333c29.419 0 53.333 23.936 53.333 53.333s-23.914 53.333-53.333 53.333zM433 2.095c-4.672-3.499-11.371-2.517-14.912 2.219L55.421 494.98c-3.52 4.736-2.517 11.413 2.24 14.912a10.591 10.591 0 0 0 6.336 2.091c3.243 0 6.485-1.493 8.576-4.309L435.24 17.007c3.52-4.736 2.517-11.414-2.24-14.912z"/></symbol><symbol id="phone-call" viewBox="0 0 29.731 29.731"><path d="M23.895 29.731c-1.237 0-2.731-.31-4.374-.93-3.602-1.358-7.521-4.042-11.035-7.556C4.971 17.73 2.287 13.81.928 10.208-.307 6.933-.31 4.245.921 3.015c.177-.177.357-.367.543-.563C2.587 1.271 3.856-.058 5.538.002 6.697.05 7.82.77 8.97 2.201c3.398 4.226 1.866 5.732.093 7.478l-.313.31c-.29.29-.838 1.633 4.26 6.731 1.664 1.664 3.083 2.882 4.217 3.619.714.464 1.991 1.166 2.515.642l.315-.318c1.744-1.769 3.25-3.296 7.473.099 1.431 1.15 2.15 2.272 2.198 3.433.069 1.681-1.27 2.953-2.452 4.075-.195.186-.385.366-.562.542-.611.612-1.588.919-2.819.919zM5.418 1C4.223 1 3.144 2.136 2.189 3.141c-.192.202-.378.398-.561.581-.917.916-.824 3.323.236 6.134 1.31 3.472 3.913 7.266 7.33 10.683 3.416 3.415 7.208 6.018 10.681 7.327 2.811 1.062 5.218 1.152 6.133.237.183-.183.379-.369.581-.56 1.027-.976 2.192-2.082 2.141-3.309-.035-.843-.649-1.75-1.825-2.695-3.519-2.83-4.503-1.831-6.135-.176l-.32.323c-.78.781-2.047.608-3.767-.51-1.193-.776-2.667-2.038-4.379-3.751-4.231-4.23-5.584-6.819-4.26-8.146l.319-.315c1.659-1.632 2.66-2.617-.171-6.138-.947-1.175-1.853-1.789-2.696-1.825L5.418 1z"/></symbol><symbol id="reload" viewBox="0 0 489.711 489.711"><path d="M112.156 97.111c72.3-65.4 180.5-66.4 253.8-6.7l-58.1 2.2c-7.5.3-13.3 6.5-13 14 .3 7.3 6.3 13 13.5 13h.5l89.2-3.3c7.3-.3 13-6.2 13-13.5v-1-.6l-3.3-88.2c-.3-7.5-6.6-13.3-14-13-7.5.3-13.3 6.5-13 14l2.1 55.3c-36.3-29.7-81-46.9-128.8-49.3-59.2-3-116.1 17.3-160 57.1-60.4 54.7-86 137.9-66.8 217.1 1.5 6.2 7 10.3 13.1 10.3 1.1 0 2.1-.1 3.2-.4 7.2-1.8 11.7-9.1 9.9-16.3-16.8-69.6 5.6-142.7 58.7-190.7zM462.456 195.511c-1.8-7.2-9.1-11.7-16.3-9.9-7.2 1.8-11.7 9.1-9.9 16.3 16.9 69.6-5.6 142.7-58.7 190.7-37.3 33.7-84.1 50.3-130.7 50.3-44.5 0-88.9-15.1-124.7-44.9l58.8-5.3c7.4-.7 12.9-7.2 12.2-14.7s-7.2-12.9-14.7-12.2l-88.9 8c-7.4.7-12.9 7.2-12.2 14.7l8 88.9c.6 7 6.5 12.3 13.4 12.3.4 0 .8 0 1.2-.1 7.4-.7 12.9-7.2 12.2-14.7l-4.8-54.1c36.3 29.4 80.8 46.5 128.3 48.9 3.8.2 7.6.3 11.3.3 55.1 0 107.5-20.2 148.7-57.4 60.4-54.7 86-137.8 66.8-217.1z"/></symbol><symbol id="ruble" viewBox="0 0 512 512"><path d="M288 320c88.359 0 160-71.633 160-160S376.359 0 288 0H117.328c-5.891 0-10.656 4.773-10.656 10.664v287.992h-32c-5.891 0-10.672 4.781-10.672 10.688C64 315.219 68.781 320 74.672 320h32v42.656h-32c-5.891 0-10.672 4.781-10.672 10.688C64 379.219 68.781 384 74.672 384h32v117.344c0 5.875 4.766 10.656 10.656 10.656S128 507.219 128 501.344V384h181.328c5.891 0 10.672-4.781 10.672-10.656 0-5.906-4.781-10.688-10.672-10.688H128V320h160zM128 21.336h160c18.734 0 36.891 3.664 53.969 10.883 16.516 6.984 31.344 16.984 44.078 29.727 12.75 12.742 22.75 27.578 29.734 44.086C423 123.109 426.672 141.273 426.672 160s-3.672 36.891-10.891 53.969c-6.984 16.508-16.984 31.344-29.734 44.086-12.734 12.742-27.562 22.742-44.078 29.727C324.891 295 306.734 298.656 288 298.656H128V21.336z"/></symbol><symbol id="sale-01" viewBox="0 0 14 16"><style>.st0{fill:#fff}</style><path class="st0" d="M0 15.2L13.3.3l.7.5L.7 15.7zM3.5 5.9c1.8 0 3.3-1.3 3.3-2.9S5.4 0 3.5 0 .2 1.3.2 2.9c0 1.7 1.5 3 3.3 3zm0-5.1c1.3 0 2.4 1 2.4 2.1s-1 2.2-2.4 2.2-2.4-1-2.4-2.1S2.2.8 3.5.8zM10.5 10.1c-1.8 0-3.3 1.3-3.3 2.9s1.4 3 3.3 3c1.8 0 3.3-1.3 3.3-2.9 0-1.7-1.5-3-3.3-3zm0 5.1c-1.3 0-2.4-1-2.4-2.1S9.2 11 10.5 11s2.4 1 2.4 2.1-1.1 2.1-2.4 2.1z"/></symbol><symbol id="serch-01" viewBox="0 0 19 20"><style>.st0{fill:#010101}</style><path class="st0" d="M8.3 16.4C3.8 16.4.2 12.8.2 8.3S3.8.2 8.3.2s8.1 3.6 8.1 8.1-3.6 8.1-8.1 8.1zM8.3.9C4.2.9.9 4.2.9 8.3s3.3 7.4 7.4 7.4 7.4-3.3 7.4-7.4S12.4.9 8.3.9z"/><path class="st0" d="M8.3 16.7C3.7 16.7 0 12.9 0 8.3S3.7 0 8.3 0c4.6 0 8.3 3.7 8.3 8.3s-3.7 8.4-8.3 8.4zM8.3.5C4 .5.5 4 .5 8.3s3.5 7.8 7.8 7.8 7.8-3.5 7.8-7.8S12.6.5 8.3.5zm0 15.5C4.1 16 .6 12.6.6 8.3S4 .6 8.3.6C12.5.6 16 4 16 8.3S12.6 16 8.3 16zm0-14.8c-3.9 0-7.1 3.2-7.1 7.2s3.2 7.2 7.1 7.2c3.9 0 7.1-3.2 7.1-7.2s-3.1-7.2-7.1-7.2z"/><g><path class="st0" d="M18.4 19.7c-.1 0-.2 0-.2-.1l-5.1-5.1c-.1-.1-.1-.3 0-.5s.3-.1.5 0l5.1 5.1c.1.1.1.3 0 .5-.1.1-.2.1-.3.1z"/><path class="st0" d="M18.4 20c-.2 0-.3-.1-.4-.2l-5.1-5.1c-.2-.2-.2-.6 0-.8.2-.2.6-.2.8 0l5.1 5.1c.1.1.2.3.2.4 0 .2-.1.3-.2.4-.1.1-.2.2-.4.2zm-5.1-5.8l-.1.1 5.1 5.1h.1v-.1-.1l-5.1-5c.1 0 0 0 0 0z"/></g></symbol><symbol id="share-01" viewBox="0 0 17 20"><style>.st0{fill:#5bc2a7}</style><path class="st0" d="M14 952.4c-1.6 0-3 1.4-3 3 0 .4.1.8.2 1.2L5 960.2c-.5-.5-1.3-.9-2.1-.9-1.6 0-3 1.4-3 3s1.3 3 3 3c.8 0 1.6-.3 2.1-.9l6.2 3.6c-.2.4-.2.8-.2 1.2 0 1.7 1.3 3 3 3s3-1.4 3-3-1.3-3-3-3c-1.1 0-2 .6-2.5 1.4L5.4 964c.4-.5.6-1.1.6-1.8s-.2-1.3-.6-1.8l6.1-3.6c.5.9 1.5 1.4 2.5 1.4 1.6 0 3-1.4 3-3s-1.3-2.8-3-2.8z" transform="translate(0 -952.362)"/></symbol><symbol id="strelka-01" viewBox="17 -19.5 51.5 51.5"><style>.st0,.st1{fill:#fff;stroke:#656969;stroke-linecap:round;stroke-linejoin:round;stroke-miterlimit:10}.st1{fill:none;stroke:#6ed89d;stroke-width:2.5986}</style><circle class="st0" cx="42.8" cy="6.3" r="25"/><path class="st1" d="M42.8 20.4V-7.9m-12 10.2l12-12 12 12"/></symbol><symbol id="time" viewBox="0 0 60 60"><path d="M30 0C13.458 0 0 13.458 0 30s13.458 30 30 30 30-13.458 30-30S46.542 0 30 0zm0 58C14.561 58 2 45.439 2 30S14.561 2 30 2s28 12.561 28 28-12.561 28-28 28z"/><path d="M30 6a1 1 0 0 0-1 1v23H14a1 1 0 1 0 0 2h16a1 1 0 0 0 1-1V7a1 1 0 0 0-1-1z"/></symbol><symbol id="twit-01" viewBox="0 0 33 33"><style>.st0{fill:#fff}.st1{fill:#5bc2a7}</style><circle class="st0" cx="16.5" cy="16.5" r="16"/><path class="st1" d="M16.5 33C7.4 33 0 25.6 0 16.5S7.4 0 16.5 0 33 7.4 33 16.5 25.6 33 16.5 33zm0-32C8 1 1 8 1 16.5S8 32 16.5 32 32 25 32 16.5 25 1 16.5 1z"/><path class="st1" d="M19 11.2c-1.6 0-2.9 1.3-3 2.9-1.5-.2-2.9-1-3.9-2.2-.1-.1-.3-.2-.4-.2h-.1c-.2 0-.4.1-.4.3-1.2 2.6-.6 4.4.1 5.6.5.8 1.2 1.4 1.9 1.8-.5.2-1.1.3-1.7.3-.3 0-.6.3-.6.6 0 .6.9 1 1.2 1.1.5.2 1.4.5 2.5.5 2.8 0 4.5-1.3 5.5-2.4 1.2-1.4 1.9-3.2 1.9-5v-.2l.1-.3c.1-.4.2-.6.4-1.2v-.2c0-.3-.3-.6-.6-.6H21c-.5-.6-1.2-.8-2-.8z"/></symbol><symbol id="vk-01" viewBox="0 0 33 33"><style>.st0{fill:#fff}.st1{fill:#5bc2a7}</style><circle class="st0" cx="16.5" cy="16.5" r="16"/><path class="st1" d="M16.5 33C7.4 33 0 25.6 0 16.5S7.4 0 16.5 0 33 7.4 33 16.5 25.6 33 16.5 33zm0-32C8 1 1 8 1 16.5S8 32 16.5 32 32 25 32 16.5 25 1 16.5 1z"/><path class="st1" d="M24.9 20.4l-.1-.1c-.3-.5-.9-1.2-1.7-2l-.7-.7c-.2-.2-.2-.5-.1-.7.1-.2.3-.6.8-1.2l.6-.8c1-1.4 1.5-2.2 1.3-2.6l-.1-.1c0-.1-.1-.1-.3-.1-.1 0-.3-.1-.6 0H21.2l-.1.1-.1.2c-.3.7-.6 1.4-.9 2-.2.4-.4.7-.6 1-.2.3-.3.5-.5.6l-.3.3c-.1.1-.2.1-.2.1h-.2l-.2-.2c-.1-.2-.1-.3-.2-.4v-3-.4l-.1-.3c0-.1-.1-.2-.2-.2s-.2-.1-.3-.1c-.3-.1-.7-.1-1.2-.1-1.1 0-1.8.1-2.1.2l-.3.3c-.1.1-.1.2 0 .2.4.1.6.2.8.4l.1.1c0 .1.1.2.1.4s.1.4.1.6V15c0 .3-.1.5-.1.7 0 .2-.1.3-.1.4l-.1.2h-.2c-.1 0-.2 0-.3-.1-.1-.1-.2-.2-.4-.3-.1-.1-.3-.3-.4-.6-.2-.3-.3-.6-.5-.9l-.1-.3c-.1-.2-.2-.4-.4-.7-.2-.3-.3-.6-.4-.9 0-.1-.1-.2-.2-.3l-.1-.1H8.6c-.2 0-.4.1-.5.2v.2l.1.2c.4.8.7 1.6 1.2 2.4.4.8.8 1.4 1.1 1.9.3.5.6.9.9 1.3.3.4.5.7.6.8l.2.3.2.2c.1.1.3.3.6.5l.9.6c.3.2.7.3 1.2.5.4.1.9.2 1.3.1h1c.2 0 .4-.1.5-.2l.1-.2v-.2c0-.3 0-.5.1-.7 0-.2.1-.4.2-.5.1-.1.1-.2.2-.3l.2-.1h.1c.1 0 .3 0 .5.1s.4.3.5.5c.2.2.4.4.6.7s.4.4.6.6l.2.1c.1.1.3.1.5.2s.4.1.5 0h2.3c.2 0 .4 0 .5-.1l.2-.2v-.3l-.3-.3z"/></symbol><symbol id="wish_icon-01" viewBox="0 0 23 19"><path class="st0" d="M6 .038c-1.5 0-3 .6-4.2 1.7-2.3 2.2-2.3 5.9 0 8.1l9.4 9c.2.2.6.2.8 0 3.1-3 6.2-6 9.4-9 2.3-2.2 2.3-5.9 0-8.1-2.3-2.2-6.1-2.2-8.4 0l-1.3 1.3-1.3-1.3C9 .638 7.3-.062 6 .038zm0 1c1.2 0 2.5.5 3.4 1.4l1.7 1.7c.2.2.6.2.8 0l1.7-1.7c1.9-1.8 4.9-1.8 6.8 0 1.9 1.8 1.9 4.8 0 6.6-3 2.9-6 5.8-9 8.6l-9-8.7c-1.9-1.8-1.9-4.8 0-6.6 1.1-.8 2.3-1.3 3.6-1.3z"/></symbol><symbol id="zapas" viewBox="0 0 60 60"><path d="M30 0C13.5 0 0 13.5 0 30s13.5 30 30 30 30-13.5 30-30S46.5 0 30 0zm0 58C14.6 58 2 45.4 2 30S14.6 2 30 2s28 12.6 28 28-12.6 28-28 28z"/><path d="M31.4 31.3l-1-30c0-.7-.7-1.1-1.3-.9L14.9 4.5c-.6.2-.9.9-.6 1.5l15.2 25.8c.5 1 1.9.5 1.9-.5z"/></symbol></svg>