<?xml version="1.0" encoding="utf-8"?>
<!-- Generator: Adobe Illustrator 19.1.1, SVG Export Plug-In . SVG Version: 6.00 Build 0)  -->
<svg version="1.1" id="Layer_1" xmlns="http://www.w3.org/2000/svg" xmlns:xlink="http://www.w3.org/1999/xlink" x="0px" y="0px"
	 width="24px" height="19px" viewBox="0 0 24 19" style="enable-background:new 0 0 24 19;" xml:space="preserve">
<style type="text/css">
	.st0{fill:#010101;}
</style>
<g>
	<path class="st0" d="M23.5,6.1h-4.3l-2.9-5.8c-0.1-0.1-0.2-0.2-0.4-0.1c-0.1,0.1-0.2,0.2-0.1,0.3l2.8,5.5H5.4l2.8-5.5
		c0.1-0.1,0-0.3-0.1-0.4c-0.1-0.1-0.3,0-0.4,0.1L4.8,6.1H0.5c-0.2,0-0.3,0.1-0.3,0.3c0,0,0,0.1,0,0.1l3,9.9c0.5,1.5,1.9,2.5,3.5,2.5
		h10.4c1.6,0,3.1-1,3.5-2.5l3-9.8C23.8,6.3,23.7,6.2,23.5,6.1C23.6,6.1,23.5,6.1,23.5,6.1L23.5,6.1z M20.2,16.2
		c-0.4,1.3-1.6,2.1-3,2.1H6.8c-1.4,0-2.6-0.9-3-2.1L0.9,6.6h22.2L20.2,16.2z"/>
	<path class="st0" d="M6.8,19c-1.7,0-3.3-1.1-3.7-2.6L0,6.5c0,0,0-0.1,0-0.1C0,6.2,0.1,6.1,0.2,6c0.1-0.1,0.2-0.1,0.4-0.1l4.1,0
		l2.8-5.6C7.6,0,7.9-0.1,8.1,0c0.1,0.1,0.2,0.1,0.3,0.3c0,0.1,0,0.2,0,0.4L5.7,5.9h12.5l-2.6-5.2c-0.1-0.2,0-0.5,0.2-0.6
		C16,0,16.1,0,16.2,0c0.1,0,0.2,0.1,0.3,0.2l2.8,5.7h4.1c0.1,0,0.1,0,0.1,0C23.9,6,24.1,6.3,24,6.5l-3,9.9c-0.5,1.6-2,2.6-3.7,2.6
		H6.8z M0.5,6.3C0.5,6.3,0.5,6.3,0.5,6.3C0.4,6.3,0.4,6.3,0.5,6.3l2.9,9.9c0.4,1.4,1.8,2.3,3.3,2.3h10.4c1.5,0,2.9-1,3.3-2.4l3-9.8
		c0,0,0-0.1,0-0.1l0-0.1l0,0.1h-4.4l-2.9-5.9c0,0,0,0,0,0c0,0,0,0-0.1,0c0,0,0,0.1,0,0.1l2.9,5.8H5.1L8,0.5c0,0,0,0,0,0s0,0,0,0
		c0,0-0.1,0-0.1,0L4.9,6.3L0.5,6.3C0.5,6.3,0.5,6.3,0.5,6.3z M17.2,18.5H6.8c-1.5,0-2.8-0.9-3.2-2.3l-3-9.8h22.8l-3,9.8
		C20,17.6,18.7,18.5,17.2,18.5z M1.2,6.8L4,16.1c0.4,1.2,1.5,2,2.8,2h10.4c1.3,0,2.4-0.8,2.8-2l0,0l2.8-9.3H1.2z"/>
</g>
</svg>
