<?xml version="1.0" encoding="iso-8859-1"?>
<!-- Generator: Adobe Illustrator 19.0.0, SVG Export Plug-In . SVG Version: 6.00 Build 0)  -->
<svg version="1.1" id="Layer_1" xmlns="http://www.w3.org/2000/svg" xmlns:xlink="http://www.w3.org/1999/xlink" x="0px" y="0px"
	 viewBox="0 0 512 512" style="enable-background:new 0 0 512 512;" xml:space="preserve">
<g>
	<g>
		<path d="M448.308,0H63.692c-4.416,0-8,3.584-8,8v496c0,4.424,3.584,8,8,8h384.624c4.416,0,8-3.576,7.992-8V8
			C456.308,3.584,452.732,0,448.308,0z M440.308,496H71.692V16h368.616V496z"/>
	</g>
</g>
<g>
	<g>
		<rect x="103.556" y="53.144" width="72.32" height="16"/>
	</g>
</g>
<g>
	<g>
		<rect x="103.556" y="84.792" width="102.48" height="16"/>
	</g>
</g>
<g>
	<g>
		<rect x="187.668" y="149.6" width="136.64" height="16"/>
	</g>
</g>
<g>
	<g>
		<rect x="100.268" y="197.072" width="311.472" height="16"/>
	</g>
</g>
<g>
	<g>
		<rect x="100.268" y="234.744" width="311.472" height="16"/>
	</g>
</g>
<g>
	<g>
		<rect x="100.268" y="272.4" width="311.472" height="16"/>
	</g>
</g>
<g>
	<g>
		<rect x="194.38" y="310.096" width="217.36" height="16"/>
	</g>
</g>
<g>
	<g>
		<rect x="100.268" y="310.096" width="50.208" height="16"/>
	</g>
</g>
<g>
	<g>
		<rect x="222.244" y="347.76" width="27.488" height="16"/>
	</g>
</g>
<g>
	<g>
		<rect x="100.268" y="347.76" width="22.848" height="16"/>
	</g>
</g>
<g>
	<g>
		<path d="M409.316,402.512c-3.272,0.288-6.512,0.544-9.712,0.776c0.976-2.536,1.304-5.744,0.16-8.568
			c-1.008-2.584-2.872-3.368-3.992-3.616c-0.816-0.184-1.92-0.184-3.128,0.368c-0.136-0.176-0.272-0.344-0.4-0.512
			c-3.128-3.792-8-4.992-12.72-3.168c-2.36,0.928-4.52,2.544-6.336,4.688c-2.664-1.72-5.736-1.496-6.936-1.4
			c-3.32,0.24-7.168,0.656-10.848,2.592c-4.008,2.104-7.168,5.8-8.76,10.232c-5.976-0.32-11.864-0.776-17.688-1.376
			c-2.36-0.328-4.488,1.368-4.896,3.704c-0.416,2.336,1.056,4.592,3.352,5.152c5.928,1.464,11.896,2.536,17.888,3.224
			c0.072,1.528,0.216,2.984,0.384,4.304c0.736,5.88,2.048,11.552,3.904,16.88c0.648,1.864,2.392,3.024,4.256,3.024
			c0.496,0,1-0.08,1.496-0.248c2.352-0.824,3.6-3.392,2.768-5.744c-1.648-4.72-2.808-9.768-3.464-15.008
			c-0.088-0.744-0.184-1.584-0.248-2.472c4.408,0.224,8.792,0.208,13.176,0c0.104,2.016,0.28,3.96,0.44,5.784
			c0.192,2.232,2.016,3.992,4.264,4.104c2.592,0.36,4.24-1.456,4.656-3.656c0.44-2.328,0.768-4.72,0.96-7.136
			c2.232-0.296,4.576-0.704,6.952-1.312c8.216-0.32,16.624-0.864,25.264-1.632c2.488-0.224,4.32-2.416,4.096-4.888
			C413.98,404.104,411.54,402.36,409.316,402.512z M367.996,404.456c-3.824-0.08-7.672-0.056-11.456-0.152
			c0.832-1.12,1.88-2.032,3.048-2.656c2.144-1.12,4.68-1.384,7.32-1.568c0.92-0.072,1.288-0.024,1.288-0.096
			c0.096,0.176,0.256,0.592,0.416,1.56C368.356,402.504,368.156,403.48,367.996,404.456z M385.412,403.184
			c-0.04,0.144-0.056,0.272-0.072,0.416c-0.616,0.2-1.232,0.392-1.856,0.56c-1.848,0.072-3.688,0.128-5.52,0.176
			c-0.048-0.664-0.096-1.32-0.16-1.976c1.096-3.016,3.008-5.392,5.008-6.16c1.544-0.6,2.248,0.24,2.48,0.512
			c0.64,0.784,1,2.288,0.968,3.584C385.924,401.232,385.644,402.2,385.412,403.184z"/>
	</g>
</g>
<g>
	<g>
		<path d="M163.38,409.024l-17.048,36.44l-0.344-0.608c-1.672-2.952-5.056-4.52-8.368-3.92l-0.696,0.128l16-34.208l-14.496-6.784
			l-22.552,48.216c-1.264,2.712-0.92,5.896,0.904,8.264c1.824,2.376,4.808,3.52,7.76,3l10.336-1.864l5.192,9.136
			c1.424,2.512,4.08,4.048,6.952,4.048c0.112,0,0.216,0,0.328-0.016c2.984-0.112,5.664-1.888,6.928-4.6l23.6-50.448L163.38,409.024z
			"/>
	</g>
</g>
<g>
	<g>
		<path d="M229.492,448.296l-22.56-48.216l-14.496,6.784l16.008,34.208l-0.696-0.128c-3.312-0.6-6.696,0.968-8.368,3.92
			l-0.344,0.608l-17.056-36.44l-14.496,6.784l23.608,50.448c1.264,2.712,3.936,4.48,6.928,4.6c0.112,0.008,0.216,0.008,0.32,0.008
			c2.872,0,5.528-1.536,6.96-4.04l5.192-9.136l10.336,1.864c2.96,0.544,5.936-0.624,7.76-3
			C230.412,454.192,230.756,451.008,229.492,448.296z"/>
	</g>
</g>
<g>
	<g>
		<path d="M172.676,333.592c-16.024,0-29.064,13.04-29.064,29.064s13.04,29.064,29.064,29.064s29.064-13.04,29.064-29.064
			S188.7,333.592,172.676,333.592z M172.676,375.72c-7.208,0-13.064-5.856-13.064-13.064s5.864-13.064,13.064-13.064
			c7.208,0,13.064,5.856,13.064,13.064S179.884,375.72,172.676,375.72z"/>
	</g>
</g>
<g>
	<g>
		<path d="M172.676,305.08c-31.744,0-57.568,25.832-57.568,57.568c0,31.736,25.824,57.568,57.568,57.568
			s57.568-25.832,57.568-57.568C230.244,330.912,204.42,305.08,172.676,305.08z M172.676,404.216
			c-22.92,0-41.568-18.648-41.568-41.568s18.648-41.568,41.568-41.568s41.568,18.648,41.568,41.568S195.596,404.216,172.676,404.216
			z"/>
	</g>
</g>
<g>
</g>
<g>
</g>
<g>
</g>
<g>
</g>
<g>
</g>
<g>
</g>
<g>
</g>
<g>
</g>
<g>
</g>
<g>
</g>
<g>
</g>
<g>
</g>
<g>
</g>
<g>
</g>
<g>
</g>
</svg>
