<?xml version="1.0" encoding="utf-8"?>
<!-- Generator: Adobe Illustrator 19.1.1, SVG Export Plug-In . SVG Version: 6.00 Build 0)  -->
<svg version="1.1" id="Layer_1" xmlns="http://www.w3.org/2000/svg" xmlns:xlink="http://www.w3.org/1999/xlink" x="0px" y="0px"
	 width="33px" height="33px" viewBox="0 0 33 33" style="enable-background:new 0 0 33 33;" xml:space="preserve">
<style type="text/css">
	.st0{fill:#FFFFFF;}
	.st1{fill:#5BC2A7;}
</style>
<g>
	<circle class="st0" cx="16.5" cy="16.5" r="16"/>
	<path class="st1" d="M16.5,33C7.4,33,0,25.6,0,16.5S7.4,0,16.5,0S33,7.4,33,16.5S25.6,33,16.5,33z M16.5,1C8,1,1,8,1,16.5
		C1,25,8,32,16.5,32C25,32,32,25,32,16.5C32,8,25,1,16.5,1z"/>
</g>
<g>
	<path class="st1" d="M17.7,24.2v-7h2.4l0.4-2.7h-2.7v-1.7c0-0.8,0.2-1.3,1.4-1.3l1.5,0V8.9c-0.3,0-1.1-0.1-2.1-0.1
		c-2.1,0-3.5,1.3-3.5,3.6v2h-2.4v2.7h2.4v7H17.7z"/>
</g>
</svg>
