<svg id="Layer_1" data-name="Layer 1" xmlns="http://www.w3.org/2000/svg" width="775.11" height="1000" viewBox="0 0 775.11 1000"><title>1</title><path d="M387.56,0C173.52,0,0,173.52,0,387.56S387.56,1000,387.56,1000,775.11,601.6,775.11,387.56,601.6,0,387.56,0ZM33.09,390.16c0-195.77,158.7-354.46,354.46-354.46S742,194.39,742,390.16,387.56,950.31,387.56,950.31,33.09,585.92,33.09,390.16Z"/><path d="M387.56,164C263.65,164,163.2,264.44,163.2,388.35S263.65,612.71,387.56,612.71,611.92,512.26,611.92,388.35,511.47,164,387.56,164Zm4,411.4c-103.3,0-187-83.74-187-187s83.74-187,187-187,187,83.74,187,187S494.81,575.39,391.51,575.39Z"/></svg>