<?xml version="1.0" encoding="iso-8859-1"?>
<!-- Generator: Adobe Illustrator 19.0.0, SVG Export Plug-In . SVG Version: 6.00 Build 0)  -->
<svg version="1.1" id="Capa_1" xmlns="http://www.w3.org/2000/svg" xmlns:xlink="http://www.w3.org/1999/xlink" x="0px" y="0px"
	 viewBox="0 0 511.983 511.983" style="enable-background:new 0 0 511.983 511.983;" xml:space="preserve">
<g>
	<g>
		<path d="M127.997,63.983c-41.173,0-74.667,33.493-74.667,74.667s33.493,74.667,74.667,74.667s74.667-33.493,74.667-74.667
			S169.17,63.983,127.997,63.983z M127.997,191.983c-29.419,0-53.333-23.936-53.333-53.333s23.915-53.333,53.333-53.333
			c29.419,0,53.333,23.936,53.333,53.333S157.416,191.983,127.997,191.983z"/>
	</g>
</g>
<g>
	<g>
		<path d="M383.997,298.649c-41.173,0-74.667,33.493-74.667,74.667c0,41.173,33.493,74.667,74.667,74.667
			s74.667-33.493,74.667-74.667C458.664,332.143,425.17,298.649,383.997,298.649z M383.997,426.649
			c-29.419,0-53.333-23.936-53.333-53.333s23.915-53.333,53.333-53.333c29.419,0,53.333,23.936,53.333,53.333
			S413.416,426.649,383.997,426.649z"/>
	</g>
</g>
<g>
	<g>
		<path d="M433,2.095c-4.672-3.499-11.371-2.517-14.912,2.219L55.421,494.98c-3.52,4.736-2.517,11.413,2.24,14.912
			c1.899,1.408,4.117,2.091,6.336,2.091c3.243,0,6.485-1.493,8.576-4.309L435.24,17.007C438.76,12.271,437.757,5.593,433,2.095z"/>
	</g>
</g>
<g>
</g>
<g>
</g>
<g>
</g>
<g>
</g>
<g>
</g>
<g>
</g>
<g>
</g>
<g>
</g>
<g>
</g>
<g>
</g>
<g>
</g>
<g>
</g>
<g>
</g>
<g>
</g>
<g>
</g>
</svg>
