<?xml version="1.0" encoding="utf-8"?>
<!-- Generator: Adobe Illustrator 19.1.1, SVG Export Plug-In . SVG Version: 6.00 Build 0)  -->
<svg version="1.1" id="Layer_1" xmlns="http://www.w3.org/2000/svg" xmlns:xlink="http://www.w3.org/1999/xlink" x="0px" y="0px"
	 width="14px" height="16px" viewBox="0 0 14 16" style="enable-background:new 0 0 14 16;" xml:space="preserve">
<style type="text/css">
	.st0{fill:#FFFFFF;}
</style>
<polygon class="st0" points="0,15.2 13.3,0.3 14,0.8 0.7,15.7 "/>
<path class="st0" d="M3.5,5.9c1.8,0,3.3-1.3,3.3-2.9S5.4,0,3.5,0S0.2,1.3,0.2,2.9l0,0C0.2,4.6,1.7,5.9,3.5,5.9z M3.5,0.8
	c1.3,0,2.4,1,2.4,2.1S4.9,5.1,3.5,5.1s-2.4-1-2.4-2.1S2.2,0.8,3.5,0.8z"/>
<path class="st0" d="M10.5,10.1c-1.8,0-3.3,1.3-3.3,2.9S8.6,16,10.5,16c1.8,0,3.3-1.3,3.3-2.9C13.8,11.4,12.3,10.1,10.5,10.1z
	 M10.5,15.2c-1.3,0-2.4-1-2.4-2.1s1.1-2.1,2.4-2.1s2.4,1,2.4,2.1S11.8,15.2,10.5,15.2z"/>
</svg>
