<?xml version="1.0" encoding="utf-8"?>
<!-- Generator: Adobe Illustrator 19.1.1, SVG Export Plug-In . SVG Version: 6.00 Build 0)  -->
<svg version="1.1" id="Layer_1" xmlns="http://www.w3.org/2000/svg" xmlns:xlink="http://www.w3.org/1999/xlink" x="0px" y="0px"
	 width="19px" height="20px" viewBox="0 0 19 20" style="enable-background:new 0 0 19 20;" xml:space="preserve">
<style type="text/css">
	.st0{fill:#010101;}
</style>
<g>
	<g>
		<path class="st0" d="M8.3,16.4c-4.5,0-8.1-3.6-8.1-8.1c0-4.5,3.6-8.1,8.1-8.1s8.1,3.6,8.1,8.1C16.4,12.8,12.8,16.4,8.3,16.4z
			 M8.3,0.9c-4.1,0-7.4,3.3-7.4,7.4s3.3,7.4,7.4,7.4s7.4-3.3,7.4-7.4S12.4,0.9,8.3,0.9z"/>
		<path class="st0" d="M8.3,16.7C3.7,16.7,0,12.9,0,8.3S3.7,0,8.3,0c4.6,0,8.3,3.7,8.3,8.3S12.9,16.7,8.3,16.7z M8.3,0.5
			C4,0.5,0.5,4,0.5,8.3s3.5,7.8,7.8,7.8c4.3,0,7.8-3.5,7.8-7.8S12.6,0.5,8.3,0.5z M8.3,16c-4.2,0-7.7-3.4-7.7-7.7s3.4-7.7,7.7-7.7
			c4.2,0,7.7,3.4,7.7,7.7S12.6,16,8.3,16z M8.3,1.2c-3.9,0-7.1,3.2-7.1,7.2s3.2,7.2,7.1,7.2c3.9,0,7.1-3.2,7.1-7.2S12.3,1.2,8.3,1.2
			z"/>
	</g>
	<g>
		<path class="st0" d="M18.4,19.7c-0.1,0-0.2,0-0.2-0.1l-5.1-5.1c-0.1-0.1-0.1-0.3,0-0.5s0.3-0.1,0.5,0l5.1,5.1
			c0.1,0.1,0.1,0.3,0,0.5C18.6,19.7,18.5,19.7,18.4,19.7z"/>
		<path class="st0" d="M18.4,20c-0.2,0-0.3-0.1-0.4-0.2l-5.1-5.1c-0.2-0.2-0.2-0.6,0-0.8c0.2-0.2,0.6-0.2,0.8,0l5.1,5.1
			c0.1,0.1,0.2,0.3,0.2,0.4c0,0.2-0.1,0.3-0.2,0.4C18.7,19.9,18.6,20,18.4,20z M13.3,14.2C13.3,14.2,13.3,14.2,13.3,14.2
			c-0.1,0.1-0.1,0.1-0.1,0.1l5.1,5.1c0,0,0.1,0,0.1,0c0,0,0,0,0-0.1c0,0,0,0,0-0.1L13.3,14.2C13.4,14.2,13.3,14.2,13.3,14.2z"/>
	</g>
</g>
</svg>
