<?xml version="1.0" encoding="utf-8"?>
<!-- Generator: Adobe Illustrator 19.1.1, SVG Export Plug-In . SVG Version: 6.00 Build 0)  -->
<svg version="1.1" id="Layer_1" xmlns="http://www.w3.org/2000/svg" xmlns:xlink="http://www.w3.org/1999/xlink" x="0px" y="0px"
	 width="17px" height="20px" viewBox="0 0 17 20" style="enable-background:new 0 0 17 20;" xml:space="preserve">
<style type="text/css">
	.st0{fill:#5BC2A7;}
</style>
<g transform="translate(0,-952.36218)">
	<path class="st0" d="M14,952.4c-1.6,0-3,1.4-3,3c0,0.4,0.1,0.8,0.2,1.2l-6.2,3.6c-0.5-0.5-1.3-0.9-2.1-0.9c-1.6,0-3,1.4-3,3
		s1.3,3,3,3c0.8,0,1.6-0.3,2.1-0.9l6.2,3.6c-0.2,0.4-0.2,0.8-0.2,1.2c0,1.7,1.3,3,3,3s3-1.4,3-3s-1.3-3-3-3c-1.1,0-2,0.6-2.5,1.4
		l-6.1-3.6c0.4-0.5,0.6-1.1,0.6-1.8c0-0.7-0.2-1.3-0.6-1.8l6.1-3.6c0.5,0.9,1.5,1.4,2.5,1.4c1.6,0,3-1.4,3-3S15.7,952.4,14,952.4
		L14,952.4z"/>
</g>
</svg>
