<?xml version="1.0" encoding="utf-8"?>
<!-- Generator: Adobe Illustrator 19.1.1, SVG Export Plug-In . SVG Version: 6.00 Build 0)  -->
<svg version="1.1" id="Layer_1" xmlns="http://www.w3.org/2000/svg" xmlns:xlink="http://www.w3.org/1999/xlink" x="0px" y="0px"
	 width="33px" height="33px" viewBox="0 0 33 33" style="enable-background:new 0 0 33 33;" xml:space="preserve">
<style type="text/css">
	.st0{fill:#FFFFFF;}
	.st1{fill:#5BC2A7;}
</style>
<g>
	<circle class="st0" cx="16.5" cy="16.5" r="16"/>
	<path class="st1" d="M16.5,33C7.4,33,0,25.6,0,16.5S7.4,0,16.5,0S33,7.4,33,16.5S25.6,33,16.5,33z M16.5,1C8,1,1,8,1,16.5
		C1,25,8,32,16.5,32C25,32,32,25,32,16.5C32,8,25,1,16.5,1z"/>
</g>
<path class="st1" d="M19,11.2c-1.6,0-2.9,1.3-3,2.9c-1.5-0.2-2.9-1-3.9-2.2c-0.1-0.1-0.3-0.2-0.4-0.2l-0.1,0c-0.2,0-0.4,0.1-0.4,0.3
	c-1.2,2.6-0.6,4.4,0.1,5.6c0.5,0.8,1.2,1.4,1.9,1.8c-0.5,0.2-1.1,0.3-1.7,0.3c-0.3,0-0.6,0.3-0.6,0.6c0,0.6,0.9,1,1.2,1.1
	c0.5,0.2,1.4,0.5,2.5,0.5c2.8,0,4.5-1.3,5.5-2.4c1.2-1.4,1.9-3.2,1.9-5l0-0.2l0.1-0.3c0.1-0.4,0.2-0.6,0.4-1.2l0-0.2
	c0-0.3-0.3-0.6-0.6-0.6h0l-0.2,0l-0.4,0l-0.3,0l0,0C20.5,11.4,19.8,11.2,19,11.2z"/>
</svg>
