<?xml version="1.0" encoding="utf-8"?>
<!-- Generator: Adobe Illustrator 19.1.1, SVG Export Plug-In . SVG Version: 6.00 Build 0)  -->
<svg version="1.1" id="Layer_1" xmlns="http://www.w3.org/2000/svg" xmlns:xlink="http://www.w3.org/1999/xlink" x="0px" y="0px"
	 width="33px" height="33px" viewBox="0 0 33 33" style="enable-background:new 0 0 33 33;" xml:space="preserve">
<style type="text/css">
	.st0{fill:#FFFFFF;}
	.st1{fill:#5BC2A7;}
</style>
<g>
	<circle class="st0" cx="16.5" cy="16.5" r="16"/>
	<path class="st1" d="M16.5,33C7.4,33,0,25.6,0,16.5S7.4,0,16.5,0S33,7.4,33,16.5S25.6,33,16.5,33z M16.5,1C8,1,1,8,1,16.5
		C1,25,8,32,16.5,32C25,32,32,25,32,16.5C32,8,25,1,16.5,1z"/>
</g>
<path class="st1" d="M24.9,20.4l-0.1-0.1c-0.3-0.5-0.9-1.2-1.7-2l0,0l0,0l0,0h0c-0.4-0.4-0.6-0.6-0.7-0.7c-0.2-0.2-0.2-0.5-0.1-0.7
	c0.1-0.2,0.3-0.6,0.8-1.2l0.6-0.8c1-1.4,1.5-2.2,1.3-2.6l-0.1-0.1c0-0.1-0.1-0.1-0.3-0.1c-0.1,0-0.3-0.1-0.6,0l-2.5,0l-0.2,0l-0.1,0
	l0,0l0,0l-0.1,0.1L21,12.4c-0.3,0.7-0.6,1.4-0.9,2c-0.2,0.4-0.4,0.7-0.6,1c-0.2,0.3-0.3,0.5-0.5,0.6c-0.1,0.1-0.2,0.2-0.3,0.3
	c-0.1,0.1-0.2,0.1-0.2,0.1l-0.2,0c-0.1-0.1-0.1-0.1-0.2-0.2C18,16,18,15.9,17.9,15.8l0-0.4l0-0.4l0-0.4l0-0.7l0-0.6l0-0.5
	c0,0,0-0.3,0-0.4l-0.1-0.3c0-0.1-0.1-0.2-0.2-0.2s-0.2-0.1-0.3-0.1c-0.3-0.1-0.7-0.1-1.2-0.1c-1.1,0-1.8,0.1-2.1,0.2
	c-0.1,0.1-0.2,0.2-0.3,0.3c-0.1,0.1-0.1,0.2,0,0.2c0.4,0.1,0.6,0.2,0.8,0.4l0.1,0.1c0,0.1,0.1,0.2,0.1,0.4c0,0.2,0.1,0.4,0.1,0.6
	c0,0.4,0,0.8,0,1.1c0,0.3-0.1,0.5-0.1,0.7c0,0.2-0.1,0.3-0.1,0.4l-0.1,0.2l0,0l-0.2,0c-0.1,0-0.2,0-0.3-0.1
	c-0.1-0.1-0.2-0.2-0.4-0.3c-0.1-0.1-0.3-0.3-0.4-0.6c-0.2-0.3-0.3-0.6-0.5-0.9l-0.1-0.3c-0.1-0.2-0.2-0.4-0.4-0.7
	c-0.2-0.3-0.3-0.6-0.4-0.9c0-0.1-0.1-0.2-0.2-0.3l0,0l-0.1-0.1L11,12.1l-2.4,0c-0.2,0-0.4,0.1-0.5,0.2l0,0.1l0,0.1l0.1,0.2
	c0.4,0.8,0.7,1.6,1.2,2.4c0.4,0.8,0.8,1.4,1.1,1.9c0.3,0.5,0.6,0.9,0.9,1.3c0.3,0.4,0.5,0.7,0.6,0.8l0.2,0.3l0.2,0.2
	c0.1,0.1,0.3,0.3,0.6,0.5c0.3,0.2,0.6,0.4,0.9,0.6c0.3,0.2,0.7,0.3,1.2,0.5c0.4,0.1,0.9,0.2,1.3,0.1h1c0.2,0,0.4-0.1,0.5-0.2l0,0
	l0.1-0.2l0-0.2c0-0.3,0-0.5,0.1-0.7c0-0.2,0.1-0.4,0.2-0.5c0.1-0.1,0.1-0.2,0.2-0.3l0.2-0.1l0.1,0c0.1,0,0.3,0,0.5,0.1
	c0.2,0.1,0.4,0.3,0.5,0.5c0.2,0.2,0.4,0.4,0.6,0.7s0.4,0.4,0.6,0.6l0.2,0.1c0.1,0.1,0.3,0.1,0.5,0.2c0.2,0.1,0.4,0.1,0.5,0l2.3,0
	c0.2,0,0.4,0,0.5-0.1c0.1-0.1,0.2-0.2,0.2-0.2c0-0.1,0-0.2,0-0.3L24.9,20.4z"/>
</svg>
