<?xml version="1.0" encoding="utf-8"?>
<!-- Generator: Adobe Illustrator 19.1.1, SVG Export Plug-In . SVG Version: 6.00 Build 0)  -->
<svg version="1.1" id="Layer_1" xmlns="http://www.w3.org/2000/svg" xmlns:xlink="http://www.w3.org/1999/xlink" x="0px" y="0px"
	 width="23px" height="19px" viewBox="0 0 23 19" style="enable-background:new 0 0 23 19;" xml:space="preserve" fill="#fff">
<g transform="translate(0,-952.36218)">
	<path class="st0" d="M6,952.4c-1.5,0-3,0.6-4.2,1.7c-2.3,2.2-2.3,5.9,0,8.1l9.4,9c0.2,0.2,0.6,0.2,0.8,0c3.1-3,6.2-6,9.4-9
		c2.3-2.2,2.3-5.9,0-8.1c-2.3-2.2-6.1-2.2-8.4,0l-1.3,1.3l-1.3-1.3C9,953,7.3,952.3,6,952.4L6,952.4z M6,953.4
		c1.2,0,2.5,0.5,3.4,1.4l1.7,1.7c0.2,0.2,0.6,0.2,0.8,0l1.7-1.7c1.9-1.8,4.9-1.8,6.8,0c1.9,1.8,1.9,4.8,0,6.6c-3,2.9-6,5.8-9,8.6
		l-9-8.7c-1.9-1.8-1.9-4.8,0-6.6C3.5,953.9,4.7,953.4,6,953.4L6,953.4z"/>
</g>
</svg>
