<?xml version="1.0" encoding="utf-8"?>
<!-- Generator: Adobe Illustrator 21.0.0, SVG Export Plug-In . SVG Version: 6.00 Build 0)  -->
<svg version="1.1" id="Capa_1" xmlns="http://www.w3.org/2000/svg" xmlns:xlink="http://www.w3.org/1999/xlink" x="0px" y="0px"
	 viewBox="0 0 60 60" style="enable-background:new 0 0 60 60;" xml:space="preserve">
<path d="M30,0C13.5,0,0,13.5,0,30s13.5,30,30,30s30-13.5,30-30S46.5,0,30,0z M30,58C14.6,58,2,45.4,2,30S14.6,2,30,2s28,12.6,28,28
	S45.4,58,30,58z"/>
<path d="M31.4,31.3l-1-30c0-0.7-0.7-1.1-1.3-0.9L14.9,4.5c-0.6,0.2-0.9,0.9-0.6,1.5l15.2,25.8C30,32.8,31.4,32.3,31.4,31.3z"/>
</svg>
